<svg xmlns="http://www.w3.org/2000/svg" xml:space="preserve" viewBox="0 0 512 512"><path d="M197.6 0C122.5 0 61.2 61.3 61.2 136.4c0 47 24 88.7 60.3 113.2C52 279.4 2.8 348.4 2.8 428.6h39c0-86.3 69.6-155.9 155.9-155.9 41.8 0 79.1 17.1 107.1 43.8l-91.9 91.9-1.2 6.1-13.4 68.8-6.1 28.6 28.6-6.1 68.8-13.4 6.1-1.2 196.6-196.6c22.6-22.6 22.6-60.2 0-82.8-11.3-11.3-26.4-17-41.4-17-14.7 0-29.5 5.6-40.8 16.4l-77.3 77.3c-17-16.3-37.1-29.6-59.1-39C310 225 334 183.3 334 136.4 334 61.3 272.7 0 197.6 0m0 39c54 0 97.4 43.4 97.4 97.4s-43.4 97.4-97.4 97.4-97.4-43.4-97.4-97.4S143.6 39 197.6 39m253.3 194.8c4.9 0 10.1 1.6 14 5.5 7.8 7.8 7.8 19.6 0 27.4L276.1 455.4l-34.7 7.3 7.3-34.7 188.7-188.7c4-3.9 8.5-5.5 13.5-5.5"/></svg>